<svg width="327" height="45" fill="none" xmlns="http://www.w3.org/2000/svg"><path d="M.375 43.563V2.33h5.231v20.756h.113L22.93 2.331h5.906L15.9 18.025l14.906 25.538H25.07L12.694 22.13l-7.088 8.381v13.05H.375Zm47.423.787c-10.407 0-17.607-8.325-17.607-21.544 0-13.219 7.2-21.206 17.607-21.206 10.35 0 17.55 8.044 17.55 21.206 0 13.219-7.2 21.544-17.55 21.544Zm0-4.613c7.368 0 12.262-6.637 12.262-16.93 0-10.294-4.894-16.65-12.262-16.65-7.425 0-12.263 6.355-12.263 16.65 0 10.293 4.838 16.93 12.263 16.93Zm23.692 3.825V2.333h5.343L91.852 28.32l4.444 8.55h.281c-.337-4.163-.731-8.831-.731-13.107V2.332h5.006v41.23h-5.4L80.49 17.576l-4.444-8.494h-.282c.282 4.163.675 8.494.675 12.881v21.6h-4.95Zm54.318.788c-11.419 0-19.182-8.212-19.182-21.938 0-13.724 7.763-21.487 19.182-21.487 11.418 0 19.181 7.819 19.181 21.488 0 13.725-7.763 21.937-19.181 21.937Zm0-8.663c5.512 0 8.943-5.174 8.943-13.274 0-8.1-3.431-12.882-8.943-12.882-5.513 0-8.888 4.781-8.888 12.882 0 8.1 3.375 13.274 8.888 13.274Zm24.138 7.876V1.656h10.238l10.406 20.082 4.106 9.28h.282c-.507-4.443-1.35-10.462-1.35-15.468V1.656h9.562v41.907h-10.237l-10.35-20.194-4.107-9.169h-.281c.45 4.669 1.294 10.406 1.294 15.469v13.893h-9.563Zm40.144 0V1.656h26.55v8.381h-16.481V17.8h14.006v8.438h-14.006v8.887h17.1v8.438H190.09Zm33.406 0V2.33h5.344l15.019 25.988 4.444 8.55h.281c-.338-4.163-.731-8.831-.731-13.107V2.332h5.006v41.23h-5.4l-14.963-25.987-4.443-8.494h-.282c.282 4.163.675 8.494.675 12.881v21.6h-4.95Zm37.837 0V2.33h5.232v20.756h.112L283.89 2.331h5.906l-12.938 15.694 14.907 25.538h-5.738L273.652 22.13l-7.087 8.381v13.05h-5.232Zm47.423.787c-10.406 0-17.606-8.325-17.606-21.544 0-13.219 7.2-21.206 17.606-21.206 10.35 0 17.55 8.044 17.55 21.206 0 13.219-7.2 21.544-17.55 21.544Zm0-4.613c7.369 0 12.262-6.637 12.262-16.93 0-10.294-4.893-16.65-12.262-16.65-7.425 0-12.263 6.355-12.263 16.65 0 10.293 4.838 16.93 12.263 16.93Z" fill="#000"/></svg>